<svg width="166" height="76" viewBox="0 0 166 76" fill="none" xmlns="http://www.w3.org/2000/svg">
<g id="logo_lvl_fitAsset 1 1" clip-path="url(#clip0_2_174)">
<g id="Layer 2">
<g id="Layer 1">
<path id="Vector" fill-rule="evenodd" clip-rule="evenodd" d="M136.903 23.0674V42.2657H147.957V48.4268H129.055V23.0674H136.903Z" fill="white"/>
<path id="Vector_2" fill-rule="evenodd" clip-rule="evenodd" d="M118.184 23.0674V28.7714H103.239V32.8755H117.019V38.5795H103.239V42.7228H118.606V48.4268H95.3945V23.0674H118.184Z" fill="white"/>
<path id="Vector_3" fill-rule="evenodd" clip-rule="evenodd" d="M77.0662 48.4268H69.9689L60.0801 23.0674H68.2835L73.5999 38.4261L78.8175 23.0674H86.8892L77.0662 48.4268Z" fill="white"/>
<path id="Vector_4" fill-rule="evenodd" clip-rule="evenodd" d="M51.444 23.0674V28.7714H36.4989V32.8755H50.2787V38.5795H36.4989V42.7228H51.8654V48.4268H28.6543V23.0674H51.444Z" fill="white"/>
<path id="Vector_5" fill-rule="evenodd" clip-rule="evenodd" d="M8.47933 23.0674V42.2657H19.5335V48.4268H0.634766V23.0674H8.47933Z" fill="white"/>
<path id="Vector_6" fill-rule="evenodd" clip-rule="evenodd" d="M110.159 68.4186L107.345 68.6341C107.293 68.4056 107.164 68.2016 106.979 68.0562C106.665 67.8778 106.304 67.7939 105.942 67.8145C105.047 67.8145 104.599 68.0518 104.599 68.5263C104.595 68.6133 104.613 68.6999 104.652 68.7781C104.69 68.8563 104.748 68.9236 104.82 68.9736C105.089 69.1234 105.382 69.2261 105.686 69.2773L107.99 69.7997C108.66 69.9076 109.284 70.2046 109.787 70.6551C110.175 71.0837 110.375 71.6474 110.344 72.2223C110.346 72.7268 110.216 73.2233 109.965 73.6622C109.729 74.0859 109.379 74.4364 108.955 74.6744C107.948 75.1722 106.832 75.4113 105.709 75.3698C104.01 75.3698 102.836 75.0128 102.186 74.2989C101.752 73.7857 101.48 73.1563 101.406 72.4901L104.31 72.3823C104.448 73.0712 105.014 73.4141 106.015 73.4141C106.397 73.4342 106.778 73.3459 107.111 73.1594C107.235 73.0902 107.338 72.9891 107.41 72.8668C107.481 72.7444 107.518 72.6052 107.516 72.4639C107.516 72.0721 107.187 71.8109 106.565 71.6869L104.31 71.2461C102.618 70.9131 101.772 70.0827 101.772 68.7549C101.757 68.3357 101.85 67.9197 102.043 67.5466C102.236 67.1734 102.523 66.8554 102.874 66.6228C103.612 66.1135 104.639 65.8621 105.956 65.8621C107.466 65.8621 108.563 66.1341 109.248 66.6783C109.764 67.1223 110.09 67.7446 110.159 68.4186Z" fill="white"/>
<path id="Vector_7" fill-rule="evenodd" clip-rule="evenodd" d="M98.9445 68.4186L96.13 68.6341C96.0774 68.4053 95.9472 68.2013 95.7613 68.0562C95.4476 67.878 95.0885 67.7941 94.7276 67.8145C93.8322 67.8145 93.3845 68.0518 93.3845 68.5263C93.3796 68.6134 93.3973 68.7002 93.4359 68.7785C93.4746 68.8568 93.5328 68.924 93.6051 68.9736C93.8737 69.124 94.1667 69.2267 94.4708 69.2773L96.7752 69.7997C97.4447 69.9076 98.0688 70.2046 98.5725 70.6551C98.9589 71.0844 99.1588 71.6476 99.1289 72.2223C99.1316 72.7268 99.001 73.2232 98.7503 73.6622C98.5147 74.0872 98.1634 74.438 97.7364 74.6744C96.7316 75.1725 95.6165 75.4117 94.4939 75.3698C92.7953 75.3698 91.6212 75.0128 90.9716 74.2989C90.5369 73.7857 90.2654 73.1562 90.1914 72.4901L93.0915 72.3823C93.2298 73.0723 93.7993 73.4162 94.8 73.4141C95.1824 73.4342 95.5627 73.3459 95.8962 73.1594C96.0201 73.09 96.1228 72.9888 96.1935 72.8664C96.2641 72.744 96.3002 72.605 96.2978 72.4639C96.2978 72.0721 95.9687 71.8109 95.3498 71.6869L93.0915 71.2461C91.4039 70.9131 90.559 70.0826 90.5568 68.7549C90.542 68.3357 90.6356 67.9197 90.8286 67.5466C91.0216 67.1734 91.3077 66.8554 91.6596 66.6228C92.397 66.1135 93.4207 65.8621 94.7375 65.8621C96.2518 65.8621 97.349 66.1341 98.0294 66.6783C98.5455 67.1226 98.8726 67.7445 98.9445 68.4186Z" fill="white"/>
<path id="Vector_8" fill-rule="evenodd" clip-rule="evenodd" d="M87.5668 66.1428V68.1508H81.9476V69.5972H87.129V71.6052H81.9476V73.0679H87.7281V75.0759H78.998V66.1428H87.5668Z" fill="white"/>
<path id="Vector_9" fill-rule="evenodd" clip-rule="evenodd" d="M75.8147 66.1428V75.0759H73.4281L69.5503 70.2796V75.0759H66.7324V66.1428H69.1355L73.0002 70.962V66.1428H75.8147Z" fill="white"/>
<path id="Vector_10" fill-rule="evenodd" clip-rule="evenodd" d="M64.4556 66.1428V68.1508H61.5916V75.0759H58.6388V68.1508H55.7617V66.1428H64.4556Z" fill="white"/>
<path id="Vector_11" d="M53.4202 66.1428H50.4707V75.0759H53.4202V66.1428Z" fill="white"/>
<path id="Vector_12" fill-rule="evenodd" clip-rule="evenodd" d="M47.7874 66.1428V68.1508H42.764V69.865H47.3858V71.8729H42.764V75.0759H39.8145V66.1428H47.7874Z" fill="white"/>
<path id="Vector_13" d="M149.371 0V4.92692H160.965V21.4839H165.998V4.92692V4.53186V0H149.371Z" fill="#E7490F"/>
</g>
</g>
</g>
<defs>
<clipPath id="clip0_2_174">
<rect width="166" height="76" fill="white"/>
</clipPath>
</defs>
</svg>
