<svg width="28" height="28" viewBox="0 0 28 28" fill="none" xmlns="http://www.w3.org/2000/svg">
<g id="Frame">
<path id="Vector" d="M6.5 9C7.88069 9 9 7.88069 9 6.5C9 5.11929 7.88069 4 6.5 4C5.11929 4 4 5.11929 4 6.5C4 7.88069 5.11929 9 6.5 9Z" fill="white"/>
<path id="Vector_2" d="M14.5 9C15.8807 9 17 7.88069 17 6.5C17 5.11929 15.8807 4 14.5 4C13.1193 4 12 5.11929 12 6.5C12 7.88069 13.1193 9 14.5 9Z" fill="white"/>
<path id="Vector_3" d="M22.5 9C23.8807 9 25 7.88069 25 6.5C25 5.11929 23.8807 4 22.5 4C21.1193 4 20 5.11929 20 6.5C20 7.88069 21.1193 9 22.5 9Z" fill="white"/>
<path id="Vector_4" d="M6.5 17C7.88069 17 9 15.8807 9 14.5C9 13.1193 7.88069 12 6.5 12C5.11929 12 4 13.1193 4 14.5C4 15.8807 5.11929 17 6.5 17Z" fill="white"/>
<path id="Vector_5" d="M14.5 17C15.8807 17 17 15.8807 17 14.5C17 13.1193 15.8807 12 14.5 12C13.1193 12 12 13.1193 12 14.5C12 15.8807 13.1193 17 14.5 17Z" fill="white"/>
<path id="Vector_6" d="M22.5 17C23.8807 17 25 15.8807 25 14.5C25 13.1193 23.8807 12 22.5 12C21.1193 12 20 13.1193 20 14.5C20 15.8807 21.1193 17 22.5 17Z" fill="white"/>
<path id="Vector_7" d="M6.5 25C7.88069 25 9 23.8807 9 22.5C9 21.1193 7.88069 20 6.5 20C5.11929 20 4 21.1193 4 22.5C4 23.8807 5.11929 25 6.5 25Z" fill="white"/>
<path id="Vector_8" d="M14.5 25C15.8807 25 17 23.8807 17 22.5C17 21.1193 15.8807 20 14.5 20C13.1193 20 12 21.1193 12 22.5C12 23.8807 13.1193 25 14.5 25Z" fill="white"/>
<path id="Vector_9" d="M22.5 25C23.8807 25 25 23.8807 25 22.5C25 21.1193 23.8807 20 22.5 20C21.1193 20 20 21.1193 20 22.5C20 23.8807 21.1193 25 22.5 25Z" fill="white"/>
</g>
</svg>
