<?xml version="1.0" standalone="no"?>
<!DOCTYPE svg PUBLIC "-//W3C//DTD SVG 20010904//EN"
 "http://www.w3.org/TR/2001/REC-SVG-20010904/DTD/svg10.dtd">
<svg version="1.0" xmlns="http://www.w3.org/2000/svg"
 width="1328.000000pt" height="1328.000000pt" viewBox="0 0 1328.000000 1328.000000"
 preserveAspectRatio="xMidYMid meet">
<metadata>
Created by potrace 1.14, written by Peter Selinger 2001-2017
</metadata>
<g transform="translate(0.000000,1328.000000) scale(0.100000,-0.100000)"
fill="#000000" stroke="none">
<path d="M11952 9483 l3 -197 460 -1 460 0 1 -660 0 -660 75 -3 c40 -1 83 -3
94 -2 11 0 68 0 128 0 l107 1 0 860 0 859 -665 0 -665 0 2 -197z"/>
<path d="M54 7825 c-2 -5 -3 -462 -2 -1015 l3 -1004 745 -1 c410 -1 750 1 755
2 6 2 10 92 9 246 l0 242 -439 2 c-241 2 -440 5 -443 7 -7 8 -5 463 2 475 4 6
4 11 -1 11 -4 0 -7 226 -6 502 1 277 1 512 -2 523 -4 19 -12 20 -311 20 -195
0 -308 -4 -310 -10z"/>
<path d="M2300 7830 c-14 -8 -10 -2020 3 -2021 7 -1 425 -2 929 -3 l918 -1 0
228 c0 174 -3 227 -12 228 -7 0 -281 1 -608 1 -363 0 -600 4 -607 10 -8 6 -9
17 -3 33 5 13 7 25 5 27 -5 5 -6 23 -6 159 0 71 4 98 13 101 7 2 255 3 551 2
484 -1 537 1 538 15 1 20 1 411 0 429 -1 9 -118 12 -550 12 -424 0 -550 3
-553 12 -3 7 -2 28 2 48 4 19 3 47 -1 63 -4 15 -4 27 1 27 4 0 4 16 0 34 -4
19 -6 37 -3 39 2 3 4 27 5 54 l0 50 586 1 c323 0 592 1 597 1 6 1 10 83 10
226 1 195 -1 225 -15 226 -58 4 -1794 3 -1800 -1z"/>
<path d="M4815 7829 c-5 -6 16 -65 33 -96 7 -12 12 -27 12 -33 0 -7 6 -26 14
-43 18 -42 65 -160 71 -177 1 -3 7 -18 14 -35 7 -16 14 -34 15 -40 4 -14 16
-45 32 -82 8 -17 14 -34 14 -38 0 -4 7 -21 15 -38 8 -18 77 -196 155 -397 77
-201 145 -374 150 -385 5 -11 37 -92 70 -180 34 -88 65 -169 70 -180 5 -11 26
-63 46 -115 20 -52 41 -106 47 -120 5 -14 11 -31 13 -39 1 -8 7 -17 12 -20 6
-3 135 -6 287 -6 264 1 277 2 288 20 6 11 12 22 12 25 2 12 17 57 25 75 6 11
35 85 66 165 31 80 61 156 67 170 5 14 11 30 12 35 3 11 122 320 135 350 13
29 111 278 114 290 5 17 70 185 96 250 5 11 42 108 84 215 41 107 95 248 120
313 25 66 46 120 46 120 0 1 -145 2 -322 2 l-323 0 -73 -215 c-40 -118 -75
-219 -76 -225 -2 -5 -6 -17 -9 -25 -3 -8 -21 -62 -41 -120 -109 -329 -209
-616 -217 -624 -5 -6 -10 -4 -12 5 -12 43 -29 96 -37 114 -5 11 -25 70 -46
130 -20 61 -49 146 -65 190 -62 179 -193 557 -226 655 -19 58 -37 107 -39 109
-6 7 -645 7 -649 0z"/>
<path d="M7640 7830 c-5 -3 -8 -460 -7 -1015 l2 -1009 927 -1 926 0 1 228 1
227 -23 1 c-12 0 -288 1 -614 1 l-592 1 -3 76 c-2 42 -1 117 2 166 l5 90 549
0 549 0 -1 205 c0 113 -1 215 -1 228 l-1 22 -549 0 -550 0 -3 43 c-2 23 -2 97
0 163 l3 121 588 0 c324 0 593 3 598 6 10 7 11 433 0 443 -8 9 -1794 12 -1807
4z"/>
<path d="M10331 7830 c-5 -4 -8 -1998 -2 -2020 1 -4 1481 -5 1502 -1 3 1 5
111 5 246 l-1 245 -416 -2 c-229 0 -421 2 -427 6 -6 3 -13 2 -17 -4 -4 -6 -10
-8 -15 -5 -5 3 -9 348 -8 766 0 418 -3 763 -7 767 -7 8 -603 10 -614 2z"/>
<path d="M7454 4400 c-18 -4 -40 -11 -50 -15 -11 -5 -21 -9 -24 -9 -3 -1 -22
-12 -43 -24 -69 -44 -108 -146 -86 -227 24 -85 102 -131 269 -159 14 -3 25 -5
25 -6 0 -1 17 -4 39 -6 90 -11 135 -49 113 -95 -17 -32 -57 -50 -115 -50 -63
-1 -99 15 -120 50 l-16 29 -101 -3 c-55 -2 -107 -4 -116 -4 -15 -1 -15 -6 -5
-38 41 -134 119 -181 310 -189 88 -3 132 2 231 29 63 17 139 88 151 139 16 67
16 126 -1 159 -28 54 -81 95 -140 106 -11 2 -38 8 -60 14 -22 6 -47 12 -55 14
-89 18 -157 39 -172 52 -48 43 6 92 98 86 48 -3 61 -8 85 -33 28 -29 30 -30
106 -24 43 3 90 6 106 6 32 0 35 20 13 71 -29 64 -76 98 -169 123 -51 13 -221
16 -273 4z"/>
<path d="M8325 4394 c-81 -28 -136 -68 -162 -118 -22 -42 -25 -134 -6 -171 39
-77 88 -104 259 -139 139 -28 169 -39 178 -61 13 -34 5 -56 -26 -76 -48 -29
-156 -24 -193 11 -14 13 -25 29 -25 36 0 12 -29 13 -218 5 -19 -1 -21 -5 -16
-28 4 -16 10 -32 15 -38 4 -5 8 -14 9 -20 3 -26 49 -77 90 -99 138 -75 429
-52 526 42 68 66 90 168 53 246 -12 25 -24 46 -28 46 -4 0 -16 8 -27 19 -19
17 -67 37 -113 46 -11 2 -25 6 -30 9 -4 3 -23 7 -42 10 -64 8 -170 39 -185 53
-15 16 -18 41 -6 60 7 12 75 30 100 27 6 -1 24 -2 38 -3 15 0 38 -14 54 -31
28 -29 29 -30 106 -25 44 3 88 8 99 10 11 2 23 4 28 4 25 3 -18 96 -61 133
-28 23 -45 31 -120 56 -47 15 -248 12 -297 -4z"/>
<path d="M3187 4382 c-2 -4 -3 -164 -3 -357 l1 -350 118 -1 c116 0 117 0 117
23 1 13 2 69 3 126 l2 102 183 3 182 2 0 80 0 80 -184 0 -183 0 -1 69 -1 68
200 -1 c126 -1 199 3 200 9 1 12 1 101 0 132 l-1 23 -315 -1 c-173 0 -316 -3
-318 -7z"/>
<path d="M4039 4378 c-1 -16 -1 -691 0 -698 2 -11 231 -6 232 4 3 36 4 683 1
694 -3 9 -36 12 -118 12 -84 0 -114 -3 -115 -12z"/>
<path d="M4461 4310 c0 -68 3 -80 17 -80 9 -1 61 -1 115 -2 l97 -1 0 -276 0
-277 119 0 119 0 0 220 c0 122 1 247 1 278 l1 57 93 0 c50 0 102 0 113 0 20 1
21 6 20 81 l-1 80 -347 0 -347 0 0 -80z"/>
<path d="M5339 4378 c-3 -83 0 -689 4 -696 3 -4 54 -8 114 -8 l108 1 1 185 c1
102 2 187 3 189 0 2 11 -9 23 -25 13 -16 26 -30 30 -32 5 -2 8 -8 8 -14 0 -6
6 -16 14 -22 7 -6 59 -68 114 -138 56 -70 107 -130 114 -135 17 -10 170 -12
183 -2 7 5 10 130 9 351 -1 189 -2 346 -3 351 0 4 -50 7 -110 7 l-109 0 -1
-35 c-2 -50 -3 -144 -1 -197 0 -10 0 -26 0 -35 -1 -91 -2 -114 -8 -108 -4 3
-72 88 -152 188 l-146 182 -97 3 c-74 2 -97 0 -98 -10z"/>
<path d="M6319 4371 c6 -10 8 -21 5 -23 -5 -5 -8 -104 -4 -123 1 -5 2 -13 1
-17 -2 -15 -3 -133 -1 -143 1 -5 2 -13 1 -17 -2 -15 -3 -133 -1 -143 1 -5 2
-13 1 -17 -2 -14 -3 -133 -1 -143 1 -5 1 -24 0 -40 l-1 -31 348 1 348 0 2 78
c1 54 -2 77 -10 78 -7 1 -109 2 -227 4 -118 1 -217 3 -220 4 -3 0 -5 25 -5 54
l0 52 208 3 208 2 -3 81 -3 81 -205 1 -204 2 -1 55 0 55 200 2 c110 1 212 2
226 2 27 1 27 1 25 79 l-2 77 -347 3 c-337 2 -347 2 -338 -17z"/>
</g>
</svg>
